<!--?xml version="1.0" encoding="utf-8"?-->
<!-- Generator: Adobe Illustrator 19.1.1, SVG Export Plug-In . SVG Version: 6.00 Build 0)  -->
<svg version="1.1" id="_x31_0" xmlns="http://www.w3.org/2000/svg" xmlns:xlink="http://www.w3.org/1999/xlink" x="0px" y="0px" viewBox="0 0 512 512" style="width: 32px; height: 32px; opacity: 1;" xml:space="preserve">
<style type="text/css">
	.st0{fill:#374149;}
</style>
<g>
	<path class="st0" d="M484.183,89.812H210.606v37.954H51.566c-1.855,0-3.633,0.734-4.942,2.046L2.047,174.387
		C0.738,175.696,0,177.476,0,179.328V409.5c0,15.378,12.469,27.843,27.848,27.843h456.304c15.383,0,27.848-12.465,27.848-27.847
		V117.629C512,102.266,499.547,89.812,484.183,89.812z M371.602,180.422v-51.734c0-3.797,3.066-6.875,6.879-6.875h82.246
		c3.797,0,6.875,3.078,6.875,6.875v51.734c0,3.797-3.078,6.875-6.875,6.875h-82.246
		C374.668,187.297,371.602,184.219,371.602,180.422z M272.375,182.551c43.281,0,80.652,25.778,97.562,62.793
		c6.176,13.531,9.629,28.563,9.629,44.383c0,59.106-48.09,107.195-107.191,107.195c-59.106,0-107.18-48.09-107.18-107.195
		c0-15.82,3.454-30.852,9.629-44.383C191.718,208.328,229.09,182.551,272.375,182.551z M81.117,207.453v-9.11
		c0-12.042,9.794-21.836,21.836-21.836c12.024,0,21.817,9.794,21.817,21.836v9.11c9.469,6.89,15.39,18.066,15.39,30.078
		c0,2.679-0.281,5.297-0.832,7.812c-3.586,16.79-18.546,29.398-36.375,29.398c-17.847,0-32.789-12.609-36.378-29.398
		c-0.547-2.515-0.832-5.133-0.832-7.812C65.742,225.52,71.652,214.344,81.117,207.453z" style="fill: rgb(255, 255, 255);"></path>
	<path class="st0" d="M66.973,108.899h100.722c8.778,0,15.894-7.118,15.894-15.898v-2.45c0-8.778-7.117-15.894-15.894-15.894H66.973
		c-8.778,0-15.894,7.117-15.894,15.894V93C51.078,101.781,58.195,108.899,66.973,108.899z" style="fill: rgb(255, 255, 255);"></path>
	<path class="st0" d="M272.375,357.508c37.43,0,67.777-30.347,67.777-67.781c0-16.965-6.25-32.488-16.562-44.383
		c-12.414-14.316-30.766-23.382-51.214-23.382c-5.5,0-10.821,0.726-15.934,1.953c-0.371,0.082-0.766,0.114-1.137,0.199l0.008,0.02
		c-0.055,0.015-0.11,0.019-0.161,0.031l7.294,21.179l12.754,37.063c0.199,0.574,0.266,1.14,0.328,1.706
		c0.027,0.266,0.078,0.531,0.078,0.797c0.027,5.051-5.004,9.141-10.258,7.332l-54.497-18.75l-3.781-1.317
		c-0.004,0.004-0.004,0.008-0.004,0.008l-0.152-0.046c-1.504,5.609-2.305,11.503-2.305,17.59
		C204.61,327.16,234.942,357.508,272.375,357.508z" style="fill: rgb(255, 255, 255);"></path>
	<path class="st0" d="M102.953,261.344c10.402,0,19.258-6.679,22.489-16c0.863-2.437,1.324-5.074,1.324-7.812
		c0-10.18-6.398-18.844-15.39-22.25v-16.938c0-4.66-3.766-8.441-8.422-8.441c-4.66,0-8.441,3.781-8.441,8.441v16.938
		c-8.989,3.406-15.375,12.07-15.375,22.25c0,2.738,0.461,5.375,1.324,7.812C83.676,254.664,92.535,261.344,102.953,261.344z" style="fill: rgb(255, 255, 255);"></path>
</g>
</svg>
