<!--?xml version="1.0" encoding="utf-8"?-->
<!-- Generator: Adobe Illustrator 19.1.1, SVG Export Plug-In . SVG Version: 6.00 Build 0)  -->
<svg version="1.1" id="_x31_0" xmlns="http://www.w3.org/2000/svg" xmlns:xlink="http://www.w3.org/1999/xlink" x="0px" y="0px" viewBox="0 0 512 512" style="width: 48px; height: 48px; opacity: 1;" xml:space="preserve">
<style type="text/css">
	.st0{fill:#374149;}
</style>
<g>
	<path class="st0" d="M174.879,245.4c14.882-32.641,45.602-56.481,82.32-61.68l54.977-54.976l38.945-38.786h-0.16l0.16-0.16h-140.48
		v38H51.602c-1.84,0-3.602,0.718-4.961,2L2.082,174.44C0.801,175.72,0,177.479,0,179.318V409.56c0,8.558,3.84,16.238,10,21.359
		L166.32,274.6C167.762,264.361,170.718,254.517,174.879,245.4z M140.019,240.517c-0.054,0.672-0.117,1.325-0.202,1.973
		c-0.126,0.973-0.246,1.95-0.458,2.91c-3.598,16.718-18.558,29.359-36.398,29.359S70.16,262.119,66.641,245.4
		c-0.211-0.965-0.352-1.95-0.489-2.93c-0.094-0.653-0.164-1.293-0.218-1.938c-0.086-0.988-0.172-1.981-0.172-2.973
		c0-12,5.918-23.199,15.359-30.082v-9.118c0-12,9.84-21.844,21.84-21.844c12.078,0,21.84,9.844,21.84,21.844v9.118
		c9.438,6.882,15.359,18.082,15.359,30.082C140.16,238.549,140.09,239.533,140.019,240.517z" style="fill: rgb(255, 255, 255);"></path>
	<path class="st0" d="M492.238,90.998l-18.555,18.558l-12.312,12.164c0.039,0,0.074,0.028,0.117,0.031l-0.129,0.13
		c3.52,0.238,6.242,3.199,6.242,6.801v51.758c0,3.84-3.043,6.878-6.801,6.878h-64.883l-38,38
		c4.723,6.161,8.801,12.962,12.082,20.082c6.16,13.519,9.602,28.558,9.602,44.32c0,59.118-48.082,107.199-107.203,107.199
		c-24.238,0-46.558-8.082-64.481-21.602l-36.32,36.325L145.84,437.24H146l-0.16,0.16h338.32c15.442,0,27.84-12.481,27.84-27.84
		V117.639C512,105.08,503.68,94.44,492.238,90.998z" style="fill: rgb(255, 255, 255);"></path>
	<path class="st0" d="M67.008,108.92H167.73c8.782,0,15.898-7.117,15.898-15.898v-2.449c0-8.778-7.117-15.894-15.898-15.894H67.008
		c-8.778,0-15.894,7.117-15.894,15.894v2.449C51.114,101.803,58.23,108.92,67.008,108.92z" style="fill: rgb(255, 255, 255);"></path>
	<path class="st0" d="M272.398,357.56c37.442,0,67.762-30.402,67.762-67.84c0-12.07-3.297-23.39-8.859-33.179
		c-0.523-0.946-0.942-1.946-1.508-2.867l-0.031,0.031c-0.031-0.047-0.05-0.098-0.082-0.145l-76.684,76.68l-16.75,16.703
		c0.011,0.007,0.023,0.011,0.031,0.019l-0.118,0.118C246.641,353.72,259.039,357.56,272.398,357.56z" style="fill: rgb(255, 255, 255);"></path>
	<path class="st0" d="M111.442,215.318v-16.957c0-4.641-3.762-8.402-8.481-8.402c-4.641,0-8.402,3.762-8.402,8.402v16.957
		c-9.039,3.364-15.359,12.082-15.359,22.242c0,2.719,0.402,5.359,1.282,7.84c3.199,9.282,12.078,16,22.48,16
		c10.398,0,19.278-6.718,22.481-16c0.878-2.481,1.359-5.121,1.359-7.84C126.801,227.4,120.398,218.682,111.442,215.318z" style="fill: rgb(255, 255, 255);"></path>
	<polygon class="st0" points="218.481,330.76 259.121,290.119 273.039,276.201 313.442,235.881 341.359,207.881 371.602,177.72 
		427.519,121.799 459.519,89.799 499.442,49.881 462.394,12.752 462.355,12.713 462.355,12.713 462.238,12.6 385.039,89.799 
		290.641,184.201 166.801,308.041 37.442,437.4 12.805,462.033 12.754,462.088 12.754,462.088 12.641,462.201 49.84,499.4 
		111.84,437.4 190.481,358.76 	" style="fill: rgb(255, 255, 255);"></polygon>
</g>
</svg>
