<!--?xml version="1.0" encoding="utf-8"?-->
<!-- Generator: Adobe Illustrator 18.1.1, SVG Export Plug-In . SVG Version: 6.00 Build 0)  -->

<svg version="1.1" id="_x31_0" xmlns="http://www.w3.org/2000/svg" xmlns:xlink="http://www.w3.org/1999/xlink" x="0px" y="0px" viewBox="0 0 512 512" style="width: 16px; height: 16px; opacity: 1;" xml:space="preserve">
<style type="text/css">
	.st0{fill:#374149;}
</style>
<g>
	<path class="st0" d="M255.897,338.673c52.752,0,95.65-42.894,95.65-95.646V95.649C351.547,42.894,308.649,0,255.897,0
		c-52.673,0-95.57,42.894-95.57,95.649v147.378C160.327,295.779,203.224,338.673,255.897,338.673z M314.012,162.438h-116.15V95.649
		c0-32.015,26.02-58.114,58.035-58.114c32.016,0,58.114,26.098,58.114,58.114V162.438z" style="fill: rgb(255, 255, 255);"></path>
	<rect x="209.365" y="471.727" class="st0" width="93.108" height="40.273" style="fill: rgb(255, 255, 255);"></rect>
	<path class="st0" d="M382.22,152.095v19.426h-0.161v78.446c0,35.666-14.658,70.062-40.218,94.37
		c-25.08,23.849-57.819,36.028-92.274,34.302c-67.17-3.372-119.789-58.724-119.789-126.013v-67.729v-13.376v-19.426h-62.43v32.802
		h21.614v67.729c0,85.763,64.602,156.848,148.79,165.974v38.346h36.331v-38.334c35.797-3.882,69.15-19.273,95.882-44.698
		c33.629-31.977,52.91-77.155,52.91-123.947v-65.07h21.775v-32.802H382.22z" style="fill: rgb(255, 255, 255);"></path>
</g>
</svg>
