<!--?xml version="1.0" encoding="utf-8"?-->
<!-- Generator: Adobe Illustrator 18.1.1, SVG Export Plug-In . SVG Version: 6.00 Build 0)  -->

<svg version="1.1" id="_x31_0" xmlns="http://www.w3.org/2000/svg" xmlns:xlink="http://www.w3.org/1999/xlink" x="0px" y="0px" viewBox="0 0 512 512" style="width: 32px; height: 32px; opacity: 1;" xml:space="preserve">
<style type="text/css">
	.st0{fill:#374149;}
</style>
<g>
	<path class="st0" d="M352.961,246.549V96.954C352.961,43.518,309.444,0,256.004,0c-53.439,0-96.875,43.436-96.957,96.875v0.078
		L345.68,283.509C350.399,272.15,352.961,259.67,352.961,246.549z M195.924,118.554c-1.278,1.441-3.598,0.558-3.598-1.36V96.954
		c0-17.519,7.121-33.437,18.64-44.955c11.597-11.519,27.518-18.722,45.037-18.722C271.284,33.276,211.447,101.195,195.924,118.554z" style="fill: rgb(255, 255, 255);"></path>
	<path class="st0" d="M208.291,270.513l-49.084-49.244v0.16l-0.16-0.16v25.28c0,53.518,43.518,96.958,96.957,96.958
		c6.133,0,12.106-0.754,17.926-1.875c1.504-0.258,3.038-0.418,4.519-0.73l-0.078-0.078c0.062-0.016,0.129-0.02,0.192-0.035
		L208.291,270.513z" style="fill: rgb(255, 255, 255);"></path>
	<rect x="209.776" y="472.014" class="st0" width="92.446" height="39.986" style="fill: rgb(255, 255, 255);"></rect>
	<path class="st0" d="M306.72,368.943c-2.222,0.996-4.476,1.922-6.754,2.781c-0.09,0.035-0.179,0.074-0.27,0.106
		c-11.589,4.363-23.823,6.996-36.393,7.73c-0.148,0.007-0.297,0.015-0.442,0.023c-4.988,0.274-10.026,0.254-15.101-0.078
		c-66.474-4.32-117.113-61.919-117.113-128.558v-58.076l-38.241-38.237H71.531c-1.602,0-2.879,1.278-2.879,2.797v26.96
		c0,1.602,1.278,2.801,2.879,2.801h9.441c5.039,0,9.199,4.16,9.199,9.199v58.079c0,85.114,64.158,155.752,147.674,164.791v38.08
		h36.077v-38.08c19.765-2.129,38.686-7.992,56.205-16.922c2.152-1.082,4.367-2.023,6.48-3.203l-0.038-0.035
		c0.05-0.027,0.102-0.05,0.152-0.078L306.72,368.943z" style="fill: rgb(255, 255, 255);"></path>
	<path class="st0" d="M421.677,251.83v-55.439c0-5.039,4.16-9.199,9.199-9.199h9.601c1.598,0,2.801-1.199,2.801-2.801v-26.96
		c0-1.519-1.203-2.797-2.801-2.797h-59.118v19.277h-0.161v77.919c0,19.116-4.238,37.916-12.238,54.958l29.999,29.999
		C413.678,311.266,421.677,281.907,421.677,251.83z" style="fill: rgb(255, 255, 255);"></path>
	<polygon class="st0" points="463.098,435.05 463.211,434.937 77.069,48.795 48.789,77.079 434.931,463.221 462.976,435.171 
		463.098,435.05 	" style="fill: rgb(255, 255, 255);"></polygon>
</g>
</svg>
